M48
; DRILL file KiCad 10.0.6 date 2026-10-10T17:24:40
; FORMAT={-:-/ absolute / metric / decimal}
; #@! TF.CreationDate,2026-10-10T17:24:40+01:00
; #@! TF.GenerationSoftware,Kicad,Pcbnew,10.0.6
; #@! TF.FileFunction,Plated,1,2,PTH
FMAT,2
METRIC
; #@! TA.AperFunction,Plated,PTH,ViaDrill
T1C0.300
; #@! TA.AperFunction,Plated,PTH,ComponentDrill
T2C0.700
; #@! TA.AperFunction,Plated,PTH,ComponentDrill
T3C0.800
; #@! TA.AperFunction,Plated,PTH,ComponentDrill
T4C0.889
; #@! TA.AperFunction,Plated,PTH,ComponentDrill
T5C1.000
; #@! TA.AperFunction,Plated,PTH,ComponentDrill
T6C1.500
%
G90
G05
T1
X149.28Y-51.959
T2
X130.2Y-34.51
X137.82Y-34.51
T3
X130.44Y-38.96
X132.98Y-38.96
X135.52Y-38.96
X138.06Y-38.96
T4
X149.28Y-46.878
X149.28Y-49.418
X149.28Y-51.959
X149.28Y-54.498
X149.28Y-57.038
X149.28Y-59.578
X149.28Y-62.118
X164.52Y-46.878
X164.52Y-49.418
X164.52Y-51.959
X164.52Y-54.498
X164.52Y-57.038
X164.52Y-59.578
X164.52Y-62.118
T5
X131.02Y-67.87
X133.56Y-67.87
X136.1Y-67.87
X138.64Y-67.87
X150.0Y-68.5
X150.0Y-71.04
X150.0Y-73.58
X150.0Y-76.12
X150.0Y-78.66
X150.0Y-81.2
X150.0Y-83.74
X150.0Y-86.28
T6
X107.65Y-51.04
X114.0Y-48.5
X117.19Y-76.46
X123.54Y-73.92
M30
